# xmcd
#
# Track frame offsets:
#  183
#  8610
#  23260
#  38563
#  54365
#  77355
#  88278
#  102928
#  116278
#  128945
#  144498
#  166935
#  182595
#  199870
#  218925
#  230443
#
# Disc length: 3275 seconds
#
# Revision: 1
# Processed by: cddbd v1.5.2PL0 Copyright (c) Steve Scherf et al.
# Submitted via: Collectorz.com_Music_Collector 7.0
#
DISCID=bf0cc910
DTITLE=King, B.B. - Everyday I Have The Blues
DYEAR=1900
DGENRE=Electric Blues
TTITLE0=A New Way Of Driving
TTITLE1=B.B. Boogie
TTITLE2=Walkin' and Cryin'
TTITLE3=It's My Own Fault Baby
TTITLE4=You've Done Lost Your Good Thing Now King
TTITLE5=Catfish Blues
TTITLE6=Precious Lord
TTITLE7=Servant's Prayer
TTITLE8=I'm Working On The Building
TTITLE9=The Letter
TTITLE10=Everyday I Have The Blues
TTITLE11=Long Nights
TTITLE12=Evil Child
TTITLE13=Sweet Sixteen
TTITLE14=Paying The Cost To Be The Boss
TTITLE15=How Blue Can You Get
EXTD=
EXTT0=
EXTT1=
EXTT2=
EXTT3=
EXTT4=
EXTT5=
EXTT6=
EXTT7=
EXTT8=
EXTT9=
EXTT10=
EXTT11=
EXTT12=
EXTT13=
EXTT14=
EXTT15=
PLAYORDER=
